<svg width="1492" height="900" viewBox="0 0 1492 900" fill="none" xmlns="http://www.w3.org/2000/svg">
<rect x="0.5" y="0.5" width="1491" height="899" rx="37.5" fill="white" stroke="#7C7C7C"/>
<mask id="mask0_1_95" style="mask-type:alpha" maskUnits="userSpaceOnUse" x="26" y="31" width="1440" height="839">
<rect x="26" y="31" width="1440" height="839" rx="3" fill="#8F8F8F"/>
</mask>
<g mask="url(#mask0_1_95)">
<rect x="26" y="31" width="1440" height="839" rx="3" fill="white"/>
<rect x="26" y="31" width="1440" height="40" fill="#ECECEC"/>
<rect x="50" y="41" width="19" height="19" fill="white"/>
<circle cx="91.5" cy="50.5" r="9.5" fill="white"/>
<path d="M121 41L132 60H110L121 41Z" fill="white"/>
<rect x="443" y="40" width="608" height="22" rx="10" fill="#F7F7F7"/>
<path fill-rule="evenodd" clip-rule="evenodd" d="M1031.38 53.2406L1031.38 53.8955L1027.24 58.0325L1026 56.7972L1030.14 52.652L1030.79 52.652L1031.02 52.4281C1030.21 51.483 1029.72 50.256 1029.72 48.9213C1029.72 45.945 1032.13 43.5325 1035.11 43.5325C1038.09 43.5325 1040.5 45.945 1040.5 48.9213C1040.5 51.8975 1038.09 54.3101 1035.11 54.3101C1033.78 54.3101 1032.55 53.8209 1031.6 53.0085L1031.38 53.2406ZM1035.11 45.1905C1033.05 45.1905 1031.38 46.8569 1031.38 48.9212C1031.38 50.9855 1033.05 52.6519 1035.11 52.6519C1037.18 52.6519 1038.84 50.9855 1038.84 48.9212C1038.84 46.8569 1037.18 45.1905 1035.11 45.1905Z" fill="#949494"/>
<path d="M686.55 49.228L685.05 53.572L683.754 49.228H682.518L684.414 55H685.602L687.102 50.608L688.638 55H689.802L691.674 49.228H690.486L689.214 53.572L687.714 49.228H686.55ZM696.066 49.228L694.566 53.572L693.27 49.228H692.034L693.93 55H695.118L696.618 50.608L698.154 55H699.318L701.19 49.228H700.002L698.73 53.572L697.23 49.228H696.066ZM705.581 49.228L704.081 53.572L702.785 49.228H701.549L703.445 55H704.633L706.133 50.608L707.669 55H708.833L710.705 49.228H709.517L708.245 53.572L706.745 49.228H705.581ZM711.244 54.232C711.244 54.7 711.604 55.06 712.072 55.06C712.54 55.06 712.912 54.7 712.912 54.232C712.912 53.764 712.54 53.392 712.072 53.392C711.604 53.392 711.244 53.764 711.244 54.232ZM715.078 57.412L718.834 49.228H717.622L715.894 53.212L714.094 49.228H712.798L715.282 54.364L713.842 57.412H715.078ZM722.157 54.172C721.197 54.172 720.357 53.452 720.357 52.108C720.357 50.776 721.197 50.056 722.157 50.056C723.117 50.056 723.957 50.776 723.957 52.108C723.957 53.452 723.117 54.172 722.157 54.172ZM722.157 49.048C720.429 49.048 719.205 50.356 719.205 52.108C719.205 53.872 720.429 55.18 722.157 55.18C723.885 55.18 725.109 53.872 725.109 52.108C725.109 50.356 723.885 49.048 722.157 49.048ZM730.297 54.304C730.297 54.544 730.321 54.868 730.345 55H731.425C731.401 54.796 731.365 54.388 731.365 53.932V49.228H730.237V52.708C730.237 53.584 729.781 54.184 728.869 54.184C727.921 54.184 727.561 53.488 727.561 52.696V49.228H726.433V52.864C726.433 54.172 727.249 55.18 728.593 55.18C729.265 55.18 729.985 54.904 730.297 54.304ZM736.494 49.168C736.434 49.156 736.278 49.132 736.122 49.132C735.534 49.132 734.814 49.348 734.394 50.236V49.228H733.29V55H734.418V52.108C734.418 50.836 735.054 50.332 736.002 50.332C736.158 50.332 736.326 50.344 736.494 50.368V49.168ZM740.528 52.048V51.064H737.276V52.048H740.528ZM745.226 49.228L743.726 53.572L742.43 49.228H741.194L743.09 55H744.278L745.778 50.608L747.314 55H748.478L750.35 49.228H749.162L747.89 53.572L746.39 49.228H745.226ZM752.104 51.52C752.152 50.776 752.728 50.044 753.676 50.044C754.696 50.044 755.236 50.692 755.26 51.52H752.104ZM755.428 53.02C755.212 53.668 754.744 54.184 753.808 54.184C752.836 54.184 752.092 53.464 752.068 52.432H756.412C756.424 52.36 756.436 52.216 756.436 52.072C756.436 50.272 755.44 49.048 753.664 49.048C752.212 49.048 750.904 50.284 750.904 52.096C750.904 54.052 752.26 55.18 753.808 55.18C755.152 55.18 756.076 54.376 756.4 53.356L755.428 53.02ZM758.992 55V54.16C759.352 54.784 760.012 55.156 760.864 55.156C762.58 55.156 763.552 53.8 763.552 52.084C763.552 50.404 762.652 49.06 760.9 49.06C759.94 49.06 759.268 49.528 758.992 50.044V46.312H757.876V55H758.992ZM762.4 52.084C762.4 53.332 761.728 54.148 760.696 54.148C759.7 54.148 758.98 53.332 758.98 52.084C758.98 50.836 759.7 50.056 760.696 50.056C761.74 50.056 762.4 50.836 762.4 52.084ZM764.449 53.5C764.545 54.16 765.217 55.18 766.801 55.18C768.229 55.18 768.913 54.208 768.913 53.392C768.913 52.54 768.361 51.904 767.317 51.676L766.381 51.472C765.937 51.376 765.721 51.124 765.721 50.776C765.721 50.38 766.105 50.008 766.681 50.008C767.593 50.008 767.833 50.668 767.881 50.968L768.877 50.596C768.757 50.08 768.265 49.048 766.681 49.048C765.553 49.048 764.629 49.888 764.629 50.872C764.629 51.688 765.169 52.3 766.069 52.492L767.053 52.708C767.533 52.816 767.797 53.092 767.797 53.452C767.797 53.86 767.449 54.22 766.813 54.22C765.997 54.22 765.541 53.74 765.469 53.14L764.449 53.5ZM771.531 55V49.228H770.415V55H771.531ZM770.163 47.044C770.163 47.488 770.523 47.848 770.967 47.848C771.423 47.848 771.783 47.488 771.783 47.044C771.783 46.588 771.423 46.228 770.967 46.228C770.523 46.228 770.163 46.588 770.163 47.044ZM774.962 47.404H773.93V48.34C773.93 48.844 773.666 49.228 773.042 49.228H772.73V50.248H773.834V53.416C773.834 54.46 774.458 55.06 775.442 55.06C775.826 55.06 776.114 54.988 776.21 54.952V53.992C776.114 54.016 775.91 54.04 775.766 54.04C775.178 54.04 774.962 53.776 774.962 53.248V50.248H776.21V49.228H774.962V47.404ZM778.389 51.52C778.437 50.776 779.013 50.044 779.961 50.044C780.981 50.044 781.521 50.692 781.545 51.52H778.389ZM781.713 53.02C781.497 53.668 781.029 54.184 780.093 54.184C779.121 54.184 778.377 53.464 778.353 52.432H782.697C782.709 52.36 782.721 52.216 782.721 52.072C782.721 50.272 781.725 49.048 779.949 49.048C778.497 49.048 777.189 50.284 777.189 52.096C777.189 54.052 778.545 55.18 780.093 55.18C781.437 55.18 782.361 54.376 782.685 53.356L781.713 53.02ZM783.865 54.232C783.865 54.7 784.225 55.06 784.693 55.06C785.161 55.06 785.533 54.7 785.533 54.232C785.533 53.764 785.161 53.392 784.693 53.392C784.225 53.392 783.865 53.764 783.865 54.232ZM789.585 50.092C790.569 50.092 790.989 50.752 791.133 51.316L792.153 50.884C791.913 50.008 791.121 49.048 789.585 49.048C787.941 49.048 786.681 50.308 786.681 52.108C786.681 53.86 787.917 55.18 789.597 55.18C791.097 55.18 791.925 54.208 792.201 53.38L791.205 52.948C791.073 53.404 790.677 54.136 789.597 54.136C788.661 54.136 787.833 53.428 787.833 52.108C787.833 50.764 788.673 50.092 789.585 50.092ZM795.938 54.172C794.978 54.172 794.138 53.452 794.138 52.108C794.138 50.776 794.978 50.056 795.938 50.056C796.898 50.056 797.738 50.776 797.738 52.108C797.738 53.452 796.898 54.172 795.938 54.172ZM795.938 49.048C794.21 49.048 792.986 50.356 792.986 52.108C792.986 53.872 794.21 55.18 795.938 55.18C797.666 55.18 798.89 53.872 798.89 52.108C798.89 50.356 797.666 49.048 795.938 49.048ZM801.449 55V51.52C801.449 50.656 801.989 50.056 802.793 50.056C803.657 50.056 804.017 50.632 804.017 51.376V55H805.145V51.508C805.145 50.68 805.685 50.056 806.477 50.056C807.329 50.056 807.701 50.62 807.701 51.376V55H808.817V51.256C808.817 49.744 807.833 49.06 806.825 49.06C806.093 49.06 805.349 49.324 804.893 50.152C804.581 49.408 803.885 49.06 803.165 49.06C802.493 49.06 801.773 49.36 801.413 49.996V49.228H800.333V55H801.449Z" fill="#949494"/>
</g>
<rect x="691.4" y="11.4" width="120.2" height="8.2" rx="4.1" stroke="#7C7C7C" stroke-width="0.8"/>
<circle cx="825.5" cy="15.5" r="4.1" stroke="#7C7C7C" stroke-width="0.8"/>
<circle cx="666.5" cy="15.5" r="4.1" stroke="#7C7C7C" stroke-width="0.8"/>
<rect x="26.5" y="31.5" width="1439" height="838" rx="2.5" stroke="#7C7C7C"/>
</svg>
