<svg width="390" height="750" viewBox="0 0 390 750" fill="none" xmlns="http://www.w3.org/2000/svg">
<path d="M14 42H376V715C376 726.598 366.598 736 355 736H35C23.402 736 14 726.598 14 715V42Z" fill="white"/>
<path d="M12 38C12 23.0883 24.0883 11 39 11H352C366.912 11 379 23.0883 379 38V42H12V38Z" fill="#E3E3E3"/>
<path opacity="0.4" d="M325.932 22.9792H343.245C344.442 22.9792 345.412 23.9496 345.412 25.1462V31.8542C345.412 33.0508 344.442 34.0211 343.245 34.0212H325.932C324.735 34.0212 323.765 33.0508 323.765 31.8542V25.1462C323.765 23.9496 324.735 22.9792 325.932 22.9792Z" stroke="#686868"/>
<path opacity="0.5" d="M346.941 26.375V30.625C347.773 30.265 348.313 29.4277 348.313 28.5C348.313 27.5723 347.773 26.735 346.941 26.375Z" fill="#686868"/>
<path d="M325.323 25.9375C325.323 25.2011 325.92 24.6042 326.657 24.6042H342.519C343.256 24.6042 343.853 25.2011 343.853 25.9375V31.0625C343.853 31.7989 343.256 32.3959 342.519 32.3959H326.657C325.92 32.3959 325.323 31.7989 325.323 31.0625V25.9375Z" fill="#686868"/>
<path fill-rule="evenodd" clip-rule="evenodd" d="M310.226 24.8598C312.516 24.8599 314.719 25.7499 316.379 27.346C316.504 27.4692 316.703 27.4676 316.826 27.3425L318.021 26.1229C318.084 26.0594 318.118 25.9735 318.118 25.884C318.117 25.7945 318.082 25.709 318.018 25.6462C313.662 21.4235 306.789 21.4235 302.433 25.6462C302.37 25.7089 302.334 25.7945 302.334 25.8839C302.333 25.9734 302.368 26.0594 302.43 26.1229L303.625 27.3425C303.748 27.4678 303.948 27.4694 304.073 27.346C305.733 25.7498 307.936 24.8598 310.226 24.8598ZM310.224 28.8182C311.484 28.8181 312.699 29.3032 313.633 30.1793C313.759 30.3037 313.958 30.301 314.081 30.1733L315.276 28.9225C315.339 28.8569 315.374 28.7679 315.373 28.6754C315.372 28.583 315.335 28.4947 315.271 28.4305C312.427 25.6899 308.024 25.6899 305.18 28.4305C305.116 28.4947 305.079 28.583 305.079 28.6755C305.078 28.768 305.113 28.857 305.176 28.9225L306.37 30.1733C306.493 30.301 306.692 30.3037 306.819 30.1793C307.752 29.3038 308.966 28.8187 310.224 28.8182ZM312.628 31.712C312.629 31.8028 312.594 31.8903 312.53 31.9539L310.456 34.0695C310.395 34.1317 310.312 34.1667 310.226 34.1667C310.139 34.1667 310.056 34.1317 309.996 34.0695L307.921 31.9539C307.857 31.8903 307.822 31.8027 307.824 31.7119C307.826 31.6211 307.865 31.5352 307.931 31.4743C309.256 30.3419 311.196 30.3419 312.52 31.4743C312.587 31.5352 312.626 31.6212 312.628 31.712Z" fill="#686868"/>
<path fill-rule="evenodd" clip-rule="evenodd" d="M297.186 23.8958C297.186 23.309 296.725 22.8333 296.157 22.8333H295.127C294.559 22.8333 294.098 23.309 294.098 23.8958V33.1041C294.098 33.6909 294.559 34.1666 295.127 34.1666H296.157C296.725 34.1666 297.186 33.6909 297.186 33.1041V23.8958ZM290.323 25.3125H291.353C291.921 25.3125 292.382 25.7882 292.382 26.375V33.1041C292.382 33.691 291.921 34.1666 291.353 34.1666H290.323C289.755 34.1666 289.294 33.691 289.294 33.1041V26.375C289.294 25.7882 289.755 25.3125 290.323 25.3125ZM286.549 27.7916H285.519C284.951 27.7916 284.49 28.2673 284.49 28.8541V33.1041C284.49 33.6909 284.951 34.1666 285.519 34.1666H286.549C287.117 34.1666 287.578 33.6909 287.578 33.1041V28.8541C287.578 28.2673 287.117 27.7916 286.549 27.7916ZM282.774 30.9791C282.774 30.3923 282.313 29.9166 281.745 29.9166H280.715C280.147 29.9166 279.686 30.3923 279.686 30.9791V33.1041C279.686 33.6909 280.147 34.1666 280.715 34.1666H281.745C282.313 34.1666 282.774 33.6909 282.774 33.1041V30.9791Z" fill="#686868"/>
<path d="M49.1431 24.4137C50.1685 24.4137 50.9937 24.6481 51.6187 25.1168C52.2486 25.5807 52.5636 26.2081 52.5636 26.9991C52.5636 27.546 52.4122 28.0343 52.1095 28.464C51.8067 28.8888 51.3184 29.2697 50.6446 29.6066C51.4454 30.0363 52.0191 30.4855 52.3658 30.9542C52.7174 31.4181 52.8931 31.9283 52.8931 32.485C52.8931 33.3639 52.5489 34.0719 51.8604 34.609C51.172 35.1412 50.2662 35.4073 49.1431 35.4073C47.9713 35.4073 47.0509 35.1583 46.3819 34.6603C45.713 34.1622 45.3785 33.4567 45.3785 32.5436C45.3785 31.9332 45.5396 31.3912 45.8619 30.9176C46.189 30.444 46.7115 30.0265 47.4293 29.6652C46.8189 29.2794 46.3795 28.8668 46.1109 28.4274C45.8424 27.9879 45.7081 27.507 45.7081 26.9845C45.7081 26.2179 46.0255 25.5978 46.6602 25.1241C47.295 24.6505 48.1226 24.4137 49.1431 24.4137ZM47.4732 32.4117C47.4732 32.8317 47.6197 33.1588 47.9127 33.3932C48.2056 33.6276 48.606 33.7448 49.1138 33.7448C49.6754 33.7448 50.0953 33.6251 50.3736 33.3859C50.6519 33.1417 50.7911 32.8219 50.7911 32.4264C50.7911 32.0992 50.6519 31.7941 50.3736 31.5109C50.1002 31.2228 49.6534 30.9176 49.0333 30.5953C47.9932 31.0739 47.4732 31.6793 47.4732 32.4117ZM49.1285 26.069C48.7428 26.069 48.4303 26.1691 48.191 26.3693C47.9566 26.5646 47.8394 26.8282 47.8394 27.1603C47.8394 27.4532 47.9322 27.7169 48.1178 27.9513C48.3082 28.1808 48.65 28.4176 49.1431 28.6617C49.6217 28.4371 49.9561 28.2076 50.1466 27.9733C50.337 27.7389 50.4322 27.4679 50.4322 27.1603C50.4322 26.8234 50.3101 26.5573 50.066 26.3619C49.8219 26.1666 49.5094 26.069 49.1285 26.069ZM54.5103 34.2135C54.5103 33.8033 54.6201 33.4933 54.8398 33.2833C55.0596 33.0734 55.3794 32.9684 55.7993 32.9684C56.2046 32.9684 56.5171 33.0758 56.7368 33.2906C56.9614 33.5055 57.0737 33.8131 57.0737 34.2135C57.0737 34.5992 56.9614 34.9044 56.7368 35.129C56.5122 35.3488 56.1997 35.4586 55.7993 35.4586C55.3892 35.4586 55.0718 35.3512 54.8472 35.1364C54.6226 34.9166 54.5103 34.609 54.5103 34.2135ZM54.5103 28.1637C54.5103 27.7535 54.6201 27.4435 54.8398 27.2335C55.0596 27.0236 55.3794 26.9186 55.7993 26.9186C56.2046 26.9186 56.5171 27.026 56.7368 27.2408C56.9614 27.4557 57.0737 27.7633 57.0737 28.1637C57.0737 28.5592 56.959 28.8668 56.7295 29.0865C56.5049 29.3014 56.1948 29.4088 55.7993 29.4088C55.3892 29.4088 55.0718 29.3014 54.8472 29.0865C54.6226 28.8717 54.5103 28.5641 54.5103 28.1637ZM64.3598 35.2609H62.0966V29.0646L62.1186 28.0465L62.1552 26.9332C61.7792 27.3092 61.518 27.5558 61.3715 27.673L60.141 28.6617L59.0497 27.2994L62.4994 24.5529H64.3598V35.2609ZM71.4627 28.42C72.4979 28.42 73.3207 28.7106 73.931 29.2916C74.5462 29.8727 74.8539 30.6686 74.8539 31.6793C74.8539 32.8756 74.4852 33.796 73.7479 34.4406C73.0106 35.0851 71.9559 35.4073 70.5838 35.4073C69.3924 35.4073 68.4305 35.2145 67.6981 34.8287V32.8732C68.0838 33.0782 68.5331 33.2467 69.0458 33.3785C69.5584 33.5055 70.0443 33.569 70.5033 33.569C71.8851 33.569 72.576 33.0026 72.576 31.8698C72.576 30.7906 71.8607 30.2511 70.43 30.2511C70.1712 30.2511 69.8856 30.278 69.5731 30.3317C69.2606 30.3805 69.0067 30.4342 68.8114 30.4928L67.9105 30.0094L68.3133 24.5529H74.1214V26.4718H70.2982L70.1004 28.5739L70.3568 28.5226C70.6546 28.4542 71.0233 28.42 71.4627 28.42Z" fill="#686868"/>
<rect x="7.5" y="7.5" width="375" height="735" rx="49.5" stroke="white" stroke-width="15"/>
<rect x="0.5" y="0.5" width="389" height="749" rx="56.5" stroke="#686868"/>
<path d="M135 11H255C255 25.3594 243.359 37 229 37H161C146.641 37 135 25.3594 135 11Z" fill="white"/>
<mask id="path-12-inside-1_1_577" fill="white">
<path fill-rule="evenodd" clip-rule="evenodd" d="M135.171 14H58C33.6995 14 14 33.6995 14 58V692C14 716.301 33.6995 736 58 736H332C356.301 736 376 716.301 376 692V58C376 33.6995 356.301 14 332 14H254.829C253.341 26.9463 242.345 37 229 37H161C147.655 37 136.659 26.9463 135.171 14Z"/>
</mask>
<path d="M135.171 14L136.165 13.8859L136.063 13H135.171V14ZM254.829 14V13H253.937L253.835 13.8859L254.829 14ZM58 15H135.171V13H58V15ZM15 58C15 34.2517 34.2518 15 58 15V13C33.1472 13 13 33.1472 13 58H15ZM15 692V58H13V692H15ZM58 735C34.2518 735 15 715.748 15 692H13C13 716.853 33.1472 737 58 737V735ZM332 735H58V737H332V735ZM375 692C375 715.748 355.748 735 332 735V737C356.853 737 377 716.853 377 692H375ZM375 58V692H377V58H375ZM332 15C355.748 15 375 34.2518 375 58H377C377 33.1472 356.853 13 332 13V15ZM254.829 15H332V13H254.829V15ZM253.835 13.8859C252.405 26.3332 241.831 36 229 36V38C242.859 38 254.278 27.5594 255.822 14.1141L253.835 13.8859ZM229 36H161V38H229V36ZM161 36C148.169 36 137.595 26.3332 136.165 13.8859L134.178 14.1141C135.722 27.5594 147.141 38 161 38V36Z" fill="#686868" mask="url(#path-12-inside-1_1_577)"/>
<rect x="166.5" y="21.5" width="53" height="3" rx="1.5" stroke="#686868"/>
<circle cx="226" cy="23" r="1.5" stroke="#686868"/>
</svg>
